<svg version="1.2" xmlns="http://www.w3.org/2000/svg" viewBox="0 0 1500 338" width="1500" height="338">
	<title>Zoom_Communications_Logo-svg</title>
	<style>
		.s0 { fill: #2d8cff } 
	</style>
	<path id="path833" fill-rule="evenodd" class="s0" d="m1210.6 87.3c-4.2-4.2-8.9-7.8-14-10.7-5.1-3-10.6-5.3-16.2-6.8-5.7-1.5-11.6-2.3-17.5-2.3-5.8 0-11.7 0.8-17.4 2.3-5.7 1.5-11.1 3.8-16.2 6.7-5.1 3-9.8 6.6-14 10.7-4.1 4.2-7.8 8.9-10.7 14-5.8 9.9-7.5 21.1-8.2 33.9l-0.9 16.9v118.1l-0.9 16.9c-1.1 28-21.5 47.9-49.7 49.8l-16.8 0.8v-337.6c16.8 0 46.2 8.5 59.3 23.2 21.6-14.7 47.5-23.2 75.5-23.2 9.6 0 19.1 1 28.4 3 9.3 2 18.4 5 27.1 9 8.7 3.9 17 8.8 24.6 14.4 7.7 5.7 14.8 12.2 21.1 19.4 6.3-7.2 13.3-13.7 21-19.4 7.7-5.6 15.9-10.5 24.6-14.4 8.7-4 17.8-7 27.1-9 9.3-2 18.9-3 28.4-3 17.7 0 35.2 3.5 51.6 10.3 16.3 6.8 31.2 16.8 43.7 29.3 12.5 12.5 22.5 27.4 29.2 43.8 6.8 16.4 10.3 34 10.3 51.7v202.5l-16.8-0.8c-27.9-1.6-48-22.1-49.8-49.8l-0.8-16.9v-118.2l-0.8-16.8c-0.7-12.4-2.5-23.9-8.2-33.8-5.9-10.3-14.4-18.8-24.7-24.7-10.2-5.9-21.8-9.1-33.6-9.1-11.8 0-23.4 3.1-33.7 9-10.2 5.9-18.7 14.4-24.7 24.6-5.8 10-7.7 21.5-8.3 34l-0.9 16.9v185.6l-16.8-0.8c-27.8-1.8-48.1-22.2-49.7-49.8l-0.9-16.9v-118.1l-0.8-16.9c-0.6-12.7-2.5-24-8.2-33.9-3-5.1-6.6-9.8-10.7-13.9zm-1143.2 249.5c-28-1.8-48-22-49.7-49.8l-0.8-16.9 202.2-202.6h-151.7l-16.9-0.8c-27.5-1.6-47.5-22.3-49.7-49.8l-0.8-16.9 252.8 0.1 16.9 0.8c27.9 1.5 48.4 21.7 49.7 49.8l0.8 16.8-202.2 202.6h151.7l16.8 0.8c27.8 1.8 47.5 22.1 49.7 49.8l0.9 16.9h-252.8l-16.9-0.8zm894.5-287.4c15.7 15.7 28.1 34.3 36.5 54.8 8.5 20.5 12.9 42.4 12.9 64.6 0 22.2-4.4 44.1-12.9 64.6-8.4 20.5-20.8 39.1-36.5 54.8-15.7 15.6-34.2 28.1-54.7 36.5-20.5 8.5-42.4 12.9-64.5 12.9-22.1 0-44.1-4.4-64.5-12.9-20.5-8.4-39.1-20.9-54.7-36.5-65.8-66-65.8-172.8 0-238.8 7.8-7.8 16.3-14.8 25.5-20.9 9.2-6.2 18.9-11.4 29.1-15.6 10.2-4.3 20.8-7.5 31.6-9.6 10.8-2.2 21.9-3.3 32.9-3.3 11 0 22.1 1.1 32.9 3.2 10.8 2.2 21.4 5.4 31.7 9.6 10.2 4.3 19.9 9.5 29.1 15.7 9.2 6.1 17.8 13.1 25.6 21zm-80.5 25.8c-12.3-5.1-25.4-7.7-38.7-7.7-13.3 0-26.4 2.6-38.7 7.7-12.3 5.1-23.4 12.6-32.8 22-9.4 9.4-16.8 20.5-21.9 32.8-5.1 12.3-7.7 25.5-7.7 38.8 0 13.3 2.6 26.4 7.7 38.7 5.1 12.3 12.5 23.5 21.9 32.9 9.4 9.4 20.5 16.9 32.8 21.9 12.3 5.1 25.4 7.7 38.7 7.7 13.3 0 26.4-2.6 38.7-7.7 12.3-5 23.4-12.5 32.8-21.9 9.4-9.4 16.8-20.6 21.9-32.9 5.1-12.3 7.7-25.4 7.7-38.7 0-13.3-2.6-26.5-7.7-38.8-5.1-12.3-12.5-23.4-21.9-32.8-9.4-9.4-20.5-16.9-32.8-22zm-392.5-75.3c11 0 22 1.1 32.8 3.3 10.9 2.1 21.4 5.4 31.6 9.6 10.2 4.2 20 9.5 29.1 15.6 9.2 6.1 17.8 13.2 25.6 21 65.8 65.9 65.8 172.8 0 238.7-15.7 15.6-34.3 28.1-54.7 36.6-20.5 8.4-42.4 12.8-64.5 12.8-22.2 0-44.1-4.4-64.5-12.8-20.5-8.5-39.1-21-54.7-36.6-65.9-65.9-65.9-172.8 0-238.7 7.8-7.9 16.3-14.9 25.5-21 9.2-6.2 18.9-11.4 29.1-15.6 10.2-4.2 20.8-7.5 31.6-9.6 10.8-2.2 21.8-3.3 32.9-3.3zm71.4 97.2c-9.4-9.4-20.6-16.8-32.9-21.9-12.2-5.1-25.4-7.7-38.6-7.7-13.3 0-26.5 2.6-38.7 7.7-12.3 5.1-23.5 12.5-32.9 21.9-9.3 9.5-16.8 20.6-21.9 32.9-5.1 12.3-7.7 25.5-7.7 38.8 0 13.3 2.6 26.4 7.7 38.7 5.1 12.3 12.6 23.5 21.9 32.9 9.4 9.4 20.6 16.8 32.9 21.9 12.2 5.1 25.4 7.7 38.7 7.7 13.2 0 26.4-2.6 38.6-7.7 12.3-5.1 23.5-12.5 32.9-21.9 9.4-9.4 16.8-20.6 21.9-32.9 5.1-12.3 7.7-25.4 7.7-38.7 0-13.3-2.6-26.5-7.7-38.8-5.1-12.3-12.5-23.5-21.9-32.9z"/>
</svg>